# xmcd
#
# Track frame offsets:
#	150
#	17481
#	32437
#	45807
#	59023
#	73484
#	91302
#
# Disc length: 1412 seconds
#
# Revision: 1
# Processed by: cddbd v1.5.2PL0 Copyright (c) Steve Scherf et al.
# Submitted via: audiograbber 1.83.01
#
DISCID=53058207
DTITLE=The Disc - Volume 14
DYEAR=1900
DGENRE=Gospel
TTITLE0=Mike Manuel - Grandpa Was Just Like That
TTITLE1=Ronnie Yawn - This Day Was Your Last
TTITLE2=Lewis Whitebird - Workin' For A Livin'
TTITLE3=Glenn Kearney - God Knows
TTITLE4=Ricky and Beverly Tyner - I Believe
TTITLE5=Mary Fay Jackson - Roses
TTITLE6=Tommy Smith - I Took A Walk Back To Jesus
EXTD=
EXTT0=
EXTT1=
EXTT2=
EXTT3=
EXTT4=
EXTT5=
EXTT6=
PLAYORDER=
